<svg width="20" height="20" viewBox="0 0 20 20" fill="none" xmlns="http://www.w3.org/2000/svg">
<path d="M14.825 18.9583H5.175C2.89167 18.9583 1.04167 17.0999 1.04167 14.8166V8.6416C1.04167 7.50827 1.74167 6.08327 2.64167 5.38327L7.13333 1.88327C8.48333 0.833271 10.6417 0.783271 12.0417 1.7666L17.1917 5.37494C18.1833 6.0666 18.9583 7.54994 18.9583 8.75827V14.8249C18.9583 17.0999 17.1083 18.9583 14.825 18.9583ZM7.9 2.8666L3.40833 6.3666C2.81667 6.83327 2.29167 7.8916 2.29167 8.6416V14.8166C2.29167 16.4083 3.58333 17.7083 5.175 17.7083H14.825C16.4167 17.7083 17.7083 16.4166 17.7083 14.8249V8.75827C17.7083 7.95827 17.1333 6.84994 16.475 6.39994L11.325 2.7916C10.375 2.12494 8.80833 2.15827 7.9 2.8666Z" fill="#292D32"/>
<path d="M10 15.625C9.65833 15.625 9.375 15.3417 9.375 15V12.5C9.375 12.1583 9.65833 11.875 10 11.875C10.3417 11.875 10.625 12.1583 10.625 12.5V15C10.625 15.3417 10.3417 15.625 10 15.625Z" fill="#292D32"/>
</svg>
