<svg width="20" height="20" viewBox="0 0 20 20" fill="none" xmlns="http://www.w3.org/2000/svg">
<path d="M11.6667 5.62496H8.33333C7.53333 5.62496 6.04167 5.62496 6.04167 3.33329C6.04167 1.04163 7.53333 1.04163 8.33333 1.04163H11.6667C12.4667 1.04163 13.9583 1.04163 13.9583 3.33329C13.9583 4.13329 13.9583 5.62496 11.6667 5.62496ZM8.33333 2.29163C7.50833 2.29163 7.29167 2.29163 7.29167 3.33329C7.29167 4.37496 7.50833 4.37496 8.33333 4.37496H11.6667C12.7083 4.37496 12.7083 4.15829 12.7083 3.33329C12.7083 2.29163 12.4917 2.29163 11.6667 2.29163H8.33333Z" fill="#292D32"/>
<path d="M12.5 18.9584H7.5C2.81667 18.9584 1.875 16.8084 1.875 13.3334V8.33344C1.875 4.53344 3.25 2.90844 6.63333 2.73344C6.975 2.71677 7.275 2.97511 7.29167 3.32511C7.30833 3.67511 7.04167 3.95844 6.7 3.97511C4.33333 4.10844 3.125 4.81677 3.125 8.33344V13.3334C3.125 16.4168 3.73333 17.7084 7.5 17.7084H12.5C16.2667 17.7084 16.875 16.4168 16.875 13.3334V8.33344C16.875 4.81677 15.6667 4.10844 13.3 3.97511C12.9583 3.95844 12.6917 3.65844 12.7083 3.31677C12.725 2.97511 13.025 2.70844 13.3667 2.72511C16.75 2.90844 18.125 4.53344 18.125 8.32511V13.3251C18.125 16.8084 17.1833 18.9584 12.5 18.9584Z" fill="#292D32"/>
</svg>
